<svg
        fill="transparent"
        height="80"
        viewBox="0 0 170 80"
        width="170"
        xmlns="http://www.w3.org/2000/svg"
>
 <path
         d="M0 0H170V73.6C170 75.8402 170 76.9603 169.564 77.816C169.181 78.5686 168.569 79.1805 167.816 79.564C166.96 80 165.84 80 163.6 80H6.39999C4.15979 80 3.03969 80 2.18404 79.564C1.43139 79.1805 0.819467 78.5686 0.435974 77.816C0 76.9603 0 75.8402 0 73.6V0Z"
         fill="#F03226"
 />
 <path
         d="M0.5 0.5H169.5V73.6C169.5 74.7284 169.5 75.5445 169.447 76.1865C169.395 76.8226 169.295 77.2434 169.119 77.589C168.783 78.2475 168.248 78.783 167.589 79.1185C167.243 79.2946 166.823 79.3952 166.186 79.4472C165.545 79.4996 164.728 79.5 163.6 79.5H6.39999C5.27164 79.5 4.45545 79.4996 3.81352 79.4472C3.17744 79.3952 2.75662 79.2946 2.41103 79.1185C1.75247 78.783 1.21703 78.2475 0.881477 77.589C0.70539 77.2434 0.604807 76.8226 0.552836 76.1865C0.500389 75.5445 0.5 74.7284 0.5 73.6V0.5Z"
         stroke="#F03226"
 />
 <path
         d="M36.3929 23C38.7999 23 39.5754 24.7262 40.2173 26.4524C40.4847 27.1694 46.7696 44.2721 46.9568 44.7767C47.0103 44.9094 46.9835 45.1485 46.7428 45.2281C46.5021 45.3078 43.2661 46.5825 43.0789 46.6356C42.8917 46.6888 42.7045 46.6091 42.6242 46.4232C42.544 46.2373 41.2068 42.5193 41.0464 42.121C40.5917 42.121 32.1941 42.121 31.7395 42.121C31.579 42.5459 30.2151 46.2638 30.1616 46.4232C30.1081 46.5825 29.8941 46.7153 29.7069 46.6356C29.5197 46.556 26.2302 45.3078 26.043 45.2281C25.8558 45.1485 25.7756 44.936 25.8291 44.7767C26.0698 44.1393 32.2476 27.3288 32.5685 26.4524C33.1836 24.7528 33.986 23 36.3929 23ZM25.3477 53.567C25.1605 53.567 25 53.7263 25 53.9388V57.9223C25 58.1348 25.1605 58.2941 25.3477 58.2941H47.4382C47.6254 58.2941 47.7858 58.1348 47.7858 57.9223V53.9388C47.7858 53.7263 47.6254 53.567 47.4382 53.567H25.3477ZM36.3929 28.5769L33.2371 37.9515H39.5754L36.4197 28.5769H36.3929ZM118.577 42.3334C118.577 43.3957 117.989 44.0862 116.892 44.0862C116.464 44.0862 116.117 44.0862 115.555 43.9268V40.7135C115.796 40.6603 116.331 40.6072 116.892 40.6072C118.015 40.6869 118.577 41.1915 118.577 42.3334ZM120.823 42.2006C120.823 40.2354 119.674 38.881 117.213 38.881C116.625 38.881 116.197 38.9341 115.555 39.0935V36.2519C115.956 36.1988 116.651 36.1457 117.4 36.1457C118.122 36.1457 119.032 36.1988 119.834 36.2785L119.887 34.6319C118.978 34.4195 117.668 34.3132 116.651 34.3132C115.635 34.3132 114.084 34.5523 113.335 34.7647V45.2281C114.485 45.653 115.635 45.8389 116.785 45.8389C119.433 45.8389 120.823 44.4314 120.823 42.2006ZM95.4435 41.6164C95.4435 43.077 94.8551 44.0331 93.8924 44.0331C93.4912 44.0331 93.2773 44.0065 92.8226 43.8737V39.4918C93.3307 39.2528 93.5982 39.2528 93.9993 39.2528C94.9621 39.2263 95.4435 40.023 95.4435 41.6164ZM88.0889 41.6695C88.0889 40.0761 88.5703 39.2263 89.5331 39.2263C89.9342 39.2263 90.2017 39.2263 90.7098 39.4653V43.8472C90.2552 44.0065 90.0412 44.0065 89.6401 44.0065C88.5436 44.0331 88.0889 43.1301 88.0889 41.6695ZM92.8226 48.2291V45.3609C93.09 45.5203 93.6249 45.7593 94.5075 45.7593C96.2993 45.7593 97.6098 44.2986 97.6098 41.5898C97.6098 38.6951 96.2993 37.447 94.1598 37.447C93.6249 37.447 93.2505 37.5001 92.8226 37.7125V34.3398H90.7366V37.7391C90.3087 37.5266 89.9342 37.4735 89.3994 37.4735C87.2599 37.4735 85.9494 38.7748 85.9494 41.6429C85.9494 44.3252 87.1261 45.7593 89.0517 45.7593C89.961 45.7593 90.4959 45.5203 90.7633 45.3609V48.2291H92.8226ZM76.91 45.6265V37.9781C75.76 37.6329 74.8774 37.5001 73.7007 37.5001C72.524 37.5001 71.6682 37.6594 70.5182 37.9781V41.9085C70.5182 42.9708 70.4914 43.2895 70.3844 43.6347C70.2775 43.9268 70.117 44.2986 69.6891 44.5908L70.2507 45.8124C71.9356 45.3344 72.5774 44.6173 72.5774 42.2803V39.3856C73.1391 39.3059 73.246 39.2794 73.7007 39.2794C74.1553 39.2794 74.2356 39.3059 74.7972 39.3856V45.6265H76.91ZM102.798 43.9534C102.343 44.1127 102.023 44.1393 101.675 44.1393C100.926 44.1393 100.498 43.8472 100.498 43.077C100.498 42.2803 101.033 42.0147 102.076 42.0147C102.317 42.0147 102.584 42.0413 102.691 42.0944V42.6787C102.691 43.2895 102.718 43.6878 102.798 43.9534ZM105.472 44.8829C104.911 44.0331 104.777 43.555 104.777 42.4928V40.3417C104.777 39.1997 104.643 38.7748 104.322 38.3233C103.895 37.7391 103.199 37.4735 101.862 37.4735C100.926 37.4735 100.017 37.5797 99.1609 37.7922L99.4818 39.3325C100.07 39.2528 100.685 39.1732 101.14 39.1732C102.531 39.1732 102.691 39.3856 102.691 40.4213V40.8197C102.37 40.74 102.023 40.6869 101.621 40.6869C99.5086 40.6869 98.4121 41.6961 98.4121 43.3957C98.4121 44.9626 99.5888 45.8389 101.033 45.8389C101.568 45.8389 102.129 45.7327 102.584 45.5468C102.852 45.4406 102.959 45.3609 103.306 45.1219C103.52 45.4406 103.948 45.7327 104.109 45.7858L105.472 44.8829ZM125.985 43.9534C125.53 44.1127 125.209 44.1393 124.862 44.1393C124.113 44.1393 123.685 43.8472 123.685 43.077C123.685 42.2803 124.22 42.0147 125.263 42.0147C125.53 42.0147 125.771 42.0413 125.878 42.0944V42.6787C125.878 43.2895 125.932 43.6878 125.985 43.9534ZM128.659 44.8829C128.098 44.0331 127.964 43.555 127.964 42.4928V40.3417C127.964 39.1997 127.83 38.7748 127.536 38.3233C127.108 37.7391 126.386 37.4735 125.076 37.4735C124.14 37.4735 123.23 37.5797 122.375 37.7922L122.696 39.3325C123.284 39.2528 123.899 39.1732 124.354 39.1732C125.744 39.1732 125.905 39.3856 125.905 40.4213V40.8197C125.611 40.74 125.236 40.6869 124.835 40.6869C122.722 40.6869 121.626 41.6961 121.626 43.3957C121.626 44.9626 122.803 45.8389 124.247 45.8389C124.782 45.8389 125.343 45.7327 125.798 45.5468C126.065 45.4406 126.172 45.3609 126.52 45.1219C126.734 45.4406 127.162 45.7327 127.322 45.7858L128.659 44.8829ZM82.8739 42.8911C82.8739 43.6613 82.6064 44.219 81.5902 44.219C81.2425 44.219 81.1088 44.219 80.6809 44.0862V41.8023C81.2425 41.6961 81.2692 41.6695 81.5902 41.6695C82.5529 41.6695 82.8739 42.1475 82.8739 42.8911ZM78.5681 37.6063V45.2016C79.5576 45.6265 80.6541 45.8124 81.6436 45.8124C83.8901 45.8124 85.0669 44.6704 85.0669 42.7849C85.0669 41.0852 83.9971 40.023 82.0181 40.023C81.5099 40.023 81.2157 40.0761 80.6809 40.2089V37.6063H78.5681ZM136.362 45.6265V37.686H134.249V40.6869H131.869V37.686H129.756V45.6265H131.869V42.3865H134.249V45.6265H136.362ZM145 45.6265C145 45.6265 143.85 43.1832 143.583 42.6521C143.262 42.0413 142.967 41.5898 142.326 41.4305V41.4039C142.754 41.3243 143.101 41.0587 143.476 40.262C143.823 39.4918 143.93 39.3059 144.144 39.1466C144.358 38.9607 144.626 39.0404 144.626 39.0404L144.733 37.6063C144.438 37.5532 144.091 37.5532 143.743 37.5797C143.181 37.6063 142.887 37.7656 142.593 38.0578C142.379 38.2702 142.219 38.5889 142.031 38.9607C141.844 39.3591 141.684 39.6777 141.47 40.1026C141.256 40.5276 141.176 40.7135 140.614 40.7135H140.266V37.686H138.154V45.6265H140.266V42.3865H140.561C141.149 42.3865 141.256 42.5459 141.577 43.1567C141.951 43.9003 142.647 45.6265 142.647 45.6265H145ZM66.6136 45.6265H69.0473L65.3833 34.5257C65.0089 34.3929 64.5275 34.3132 64.0194 34.3132C63.4578 34.3132 63.2706 34.3929 62.8427 34.5257L58.9648 45.6265H61.2915C61.2915 45.6265 61.6124 44.6439 61.9868 43.4488H65.9984C66.3194 44.6704 66.6136 45.6265 66.6136 45.6265ZM62.5217 41.5898C62.5217 41.5898 63.1903 39.3591 63.2973 39.0138C63.5647 38.1109 63.9659 36.6768 63.9659 36.6768H64.0194C64.0194 36.6768 64.3938 38.164 64.6345 38.9873C64.7415 39.3059 65.3833 41.5633 65.3833 41.5633H62.5217V41.5898ZM109.056 40.3151C108.307 40.3151 107.719 40.9259 107.719 41.6429C107.719 42.3865 108.307 42.9708 109.056 42.9708C109.805 42.9708 110.393 42.3865 110.393 41.6429C110.393 40.9259 109.778 40.3151 109.056 40.3151Z"
         fill="white"
 />
</svg>
