<svg xmlns="http://www.w3.org/2000/svg" preserveAspectRatio="xMinYMid slice" viewBox="-140.4 390.9 143.4 60"><path d="M-41 423.4c0 1.8-1 3-2.8 3-.7 0-1.3 0-2.2-.3v-5.5c.4-.1 1.3-.2 2.2-.2 1.8.2 2.8 1 2.8 3zm3.7-.3c0-3.4-1.9-5.7-6-5.7-1 0-1.7.1-2.8.4V413c.7-.1 1.8-.2 3.1-.2 1.2 0 2.7.1 4 .2l.1-2.8c-1.5-.3-3.7-.6-5.4-.6s-4.3.4-5.5.8v17.8c1.9.7 3.8 1 5.8 1 4.4.1 6.7-2.3 6.7-6.1zm-42.3-1c0 2.5-1 4.1-2.6 4.1-.7 0-1 0-1.8-.3v-7.5c.8-.4 1.3-.4 2-.4 1.6.1 2.4 1.4 2.4 4.1m-12.2.1c0-2.7.8-4.1 2.4-4.1.7 0 1.1 0 2 .4v7.5c-.8.3-1.1.3-1.8.3-1.9-.1-2.6-1.6-2.6-4.1m7.8 11.2v-4.9c.4.3 1.3.7 2.8.7 3 0 5.2-2.5 5.2-7.1 0-4.9-2.2-7-5.7-7-.9 0-1.5.1-2.2.4v-5.8h-3.5v5.8c-.7-.4-1.3-.4-2.2-.4-3.6 0-5.7 2.2-5.7 7.1 0 4.6 2 7 5.2 7 1.5 0 2.4-.4 2.8-.7v4.9h3.3m-26.5-4.4v-13c-1.9-.6-3.4-.8-5.3-.8s-3.4.3-5.3.8v6.7c0 1.8 0 2.4-.2 2.9s-.5 1.1-1.2 1.6l1 2.1c2.8-.8 3.9-2 3.9-6v-4.9c.9-.1 1.1-.2 1.9-.2.7 0 .9 0 1.8.2V429h3.4zm43.2-2.9c-.8.3-1.3.3-1.9.3-1.3 0-2-.5-2-1.8 0-1.4.9-1.8 2.6-1.8.4 0 .8.1 1 .1v1c.1 1.1.1 1.8.3 2.2zm4.4 1.6c-.9-1.4-1.2-2.3-1.2-4.1V420c0-2-.2-2.7-.7-3.4-.7-1-1.9-1.4-4.1-1.4-1.5 0-3.1.2-4.5.5l.5 2.6c1-.1 2-.3 2.8-.3 2.3 0 2.6.3 2.6 2.1v.7c-.5-.1-1.1-.2-1.8-.2-3.5 0-5.4 1.7-5.4 4.6 0 2.7 2 4.2 4.4 4.2.9 0 1.8-.2 2.6-.5.4-.2.6-.3 1.2-.7.4.5 1 1 1.3 1.1l2.3-1.6zm34.2-1.6c-.8.3-1.3.3-1.9.3-1.3 0-2-.5-2-1.8 0-1.4.9-1.8 2.6-1.8.4 0 .8.1 1 .1v1c.2 1.1.2 1.8.3 2.2zm4.5 1.6c-.9-1.4-1.2-2.3-1.2-4.1V420c0-2-.2-2.7-.7-3.4-.7-1-1.9-1.4-4.1-1.4-1.5 0-3.1.2-4.5.5l.5 2.6c1-.1 2-.3 2.8-.3 2.3 0 2.6.3 2.6 2.1v.7c-.5-.1-1.1-.2-1.8-.2-3.5 0-5.4 1.7-5.4 4.6 0 2.7 2 4.2 4.4 4.2.9 0 1.8-.2 2.6-.5.4-.2.6-.3 1.2-.7.4.5 1.1 1 1.3 1.1l2.3-1.6zm-76.3-3.4c0 1.3-.5 2.2-2.1 2.2-.6 0-.8 0-1.5-.2v-3.9c.9-.2 1-.2 1.5-.2 1.5 0 2.1.8 2.1 2.1zm-7.2-9v12.9c1.7.7 3.5 1 5.1 1 3.7 0 5.7-2 5.7-5.2 0-2.9-1.8-4.7-5.1-4.7-.8 0-1.3.1-2.2.3v-4.4l-3.5.1zm96.3 13.7v-13.5h-3.5v5.1h-4v-5.1h-3.5V429h3.5v-5.5h4v5.5h3.5zM3 429s-1.9-4.1-2.4-5.1c-.5-1.1-1-1.8-2.1-2.1v-.1c.7-.1 1.3-.6 1.9-1.9s.8-1.6 1.1-1.9.8-.2.8-.2l.2-2.5c-.5-.1-1.1-.1-1.6 0-.9.1-1.4.3-1.9.8-.4.4-.6.9-.9 1.6s-.6 1.2-.9 1.9-.5 1-1.4 1h-.6v-5.1h-3.5V429h3.5v-5.5h.5c1 0 1.2.3 1.7 1.3C-2 426-.8 429-.8 429H3zm-130.6 0h4l-6.1-18.9c-.6-.2-1.4-.4-2.3-.4s-1.3.1-2 .4l-6.5 18.9h3.9s.5-1.7 1.2-3.7h6.7c.6 2 1.1 3.7 1.1 3.7zm-6.8-6.9s1.1-3.8 1.3-4.4c.5-1.5 1.1-4 1.1-4h.1s.6 2.5 1 3.9c.2.6 1.2 4.4 1.2 4.4l-4.7.1zm77.5-2.2c-1.2 0-2.2 1-2.2 2.3s1 2.3 2.2 2.3 2.2-1 2.2-2.3c0-1.2-1-2.3-2.2-2.3z" fill="#ef3124"/></svg>
