<?xml version="1.0" encoding="utf-8"?>
<!-- Generator: Adobe Illustrator 21.1.0, SVG Export Plug-In . SVG Version: 6.00 Build 0)  -->
<svg version="1.1" id="Layer_1" xmlns="http://www.w3.org/2000/svg" xmlns:xlink="http://www.w3.org/1999/xlink" x="0px" y="0px"
	 viewBox="0 0 554 217.9" style="enable-background:new 0 0 554 217.9;" xml:space="preserve">
<style type="text/css">
	.st0{fill:#FFFFFF;}
</style>
<path class="st0" d="M85.2,42.6c9,0,11.9,6.5,14.3,13c1,2.7,24.5,67.1,25.2,69c0.2,0.5,0.1,1.4-0.8,1.7s-13,5.1-13.7,5.3
	c-0.7,0.2-1.4-0.1-1.7-0.8s-5.3-14.7-5.9-16.2c-1.7,0-33.1,0-34.8,0c-0.6,1.6-5.7,15.6-5.9,16.2c-0.2,0.6-1,1.1-1.7,0.8
	c-0.7-0.3-13-5-13.7-5.3c-0.7-0.3-1-1.1-0.8-1.7c0.9-2.4,24-65.7,25.2-69C73.2,49.2,76.2,42.6,85.2,42.6z M43.9,157.7
	c-0.7,0-1.3,0.6-1.3,1.4v15c0,0.8,0.6,1.4,1.3,1.4h82.6c0.7,0,1.3-0.6,1.3-1.4v-15c0-0.8-0.6-1.4-1.3-1.4H43.9 M85.2,63.6L73.4,98.9
	h23.7L85.3,63.6H85.2z M392.5,115.4c0,4-2.2,6.6-6.3,6.6c-1.6,0-2.9,0-5-0.6v-12.1c0.9-0.2,2.9-0.4,5-0.4
	C390.4,109.2,392.5,111.1,392.5,115.4z M400.9,114.9c0-7.4-4.3-12.5-13.5-12.5c-2.2,0-3.8,0.2-6.2,0.8l0-10.7
	c1.5-0.2,4.1-0.4,6.9-0.4c2.7,0,6.1,0.2,9.1,0.5l0.2-6.2c-3.4-0.8-8.3-1.2-12.1-1.2c-3.8,0-9.6,0.9-12.4,1.7v39.4
	c4.3,1.6,8.6,2.3,12.9,2.3C395.7,128.6,400.9,123.3,400.9,114.9z M306,112.7c0,5.5-2.2,9.1-5.8,9.1c-1.5,0-2.3-0.1-4-0.6v-16.5
	c1.9-0.9,2.9-0.9,4.4-0.9C304.2,103.7,306,106.7,306,112.7 M278.5,112.9c0-6,1.8-9.2,5.4-9.2c1.5,0,2.5,0,4.4,0.9v16.5
	c-1.7,0.6-2.5,0.6-4,0.6C280.2,121.8,278.5,118.4,278.5,112.9 M296.2,137.6v-10.8c1,0.6,3,1.5,6.3,1.5c6.7,0,11.6-5.5,11.6-15.7
	c0-10.9-4.9-15.6-12.9-15.6c-2,0-3.4,0.2-5,1V85.3h-7.8v12.8c-1.6-0.8-3-1-5-1c-8,0-12.9,4.9-12.9,15.7c0,10.1,4.4,15.5,11.6,15.5
	c3.4,0,5.4-0.9,6.4-1.5v10.8L296.2,137.6 M236.7,127.8V99c-4.3-1.3-7.6-1.8-12-1.8s-7.6,0.6-11.9,1.8v14.8c0,4-0.1,5.2-0.5,6.5
	c-0.4,1.1-1,2.5-2.6,3.6l2.1,4.6c6.3-1.8,8.7-4.5,8.7-13.3v-10.9c2.1-0.3,2.5-0.4,4.2-0.4c1.7,0,2,0.1,4.1,0.4v23.5L236.7,127.8
	L236.7,127.8z M333.5,121.5c-1.7,0.6-2.9,0.7-4.2,0.7c-2.8,0-4.4-1.1-4.4-4c0-3,2-4,5.9-4c0.9,0,1.9,0.1,2.3,0.3v2.2
	C333.1,119,333.2,120.5,333.5,121.5z M343.5,125c-2.1-3.2-2.6-5-2.6-9v-8.1c0-4.3-0.5-5.9-1.7-7.6c-1.6-2.2-4.2-3.2-9.2-3.2
	c-3.5,0-6.9,0.4-10.1,1.2l1.2,5.8c2.2-0.3,4.5-0.6,6.2-0.6c5.2,0,5.8,0.8,5.8,4.7v1.5c-1.2-0.3-2.5-0.5-4-0.5c-7.9,0-12,3.8-12,10.2
	c0,5.9,4.4,9.2,9.8,9.2c2,0,4.1-0.4,5.8-1.1c1-0.4,1.4-0.7,2.7-1.6c0.8,1.2,2.4,2.3,3,2.5L343.5,125z M420.2,121.5
	c-1.7,0.6-2.9,0.7-4.2,0.7c-2.8,0-4.4-1.1-4.4-4c0-3,2-4,5.9-4c1,0,1.9,0.1,2.3,0.3v2.2C419.8,119,420,120.5,420.2,121.5z
	 M430.2,125c-2.1-3.2-2.6-5-2.6-9v-8.1c0-4.3-0.5-5.9-1.6-7.6c-1.6-2.2-4.3-3.2-9.2-3.2c-3.5,0-6.9,0.4-10.1,1.2l1.2,5.8
	c2.2-0.3,4.5-0.6,6.2-0.6c5.2,0,5.8,0.8,5.8,4.7v1.5c-1.1-0.3-2.5-0.5-4-0.5c-7.9,0-12,3.8-12,10.2c0,5.9,4.4,9.2,9.8,9.2
	c2,0,4.1-0.4,5.8-1.1c1-0.4,1.4-0.7,2.7-1.6c0.8,1.2,2.4,2.3,3,2.5L430.2,125z M259,117.5c0,2.9-1,5-4.8,5c-1.3,0-1.8,0-3.4-0.5
	v-8.6c2.1-0.4,2.2-0.5,3.4-0.5C257.8,112.9,259,114.7,259,117.5z M242.9,97.6l0,28.6c3.7,1.6,7.8,2.3,11.5,2.3
	c8.4,0,12.8-4.3,12.8-11.4c0-6.4-4-10.4-11.4-10.4c-1.9,0-3,0.2-5,0.7v-9.8H242.9z M459,127.8V97.9h-7.9v11.3h-8.9V97.9h-7.9v29.9
	h7.9v-12.2h8.9v12.2L459,127.8L459,127.8z M491.3,127.8c0,0-4.3-9.2-5.3-11.2c-1.2-2.3-2.3-4-4.7-4.6v-0.1c1.6-0.3,2.9-1.3,4.3-4.3
	c1.3-2.9,1.7-3.6,2.5-4.2c0.8-0.7,1.8-0.4,1.8-0.4l0.4-5.4c-1.1-0.2-2.4-0.2-3.7-0.1c-2.1,0.1-3.2,0.7-4.3,1.8
	c-0.8,0.8-1.4,2-2.1,3.4c-0.7,1.5-1.3,2.7-2.1,4.3c-0.8,1.6-1.1,2.3-3.2,2.3h-1.3V97.9h-7.9v29.9h7.9v-12.2l1.1,0
	c2.2,0,2.6,0.6,3.8,2.9c1.4,2.8,4,9.3,4,9.3L491.3,127.8L491.3,127.8z M198.2,127.8h9.1L193.6,86c-1.4-0.5-3.2-0.8-5.1-0.8
	c-2.1,0-2.8,0.3-4.4,0.8l-14.5,41.8h8.7c0,0,1.2-3.7,2.6-8.2h15C197.1,124.2,198.2,127.8,198.2,127.8z M182.9,112.6
	c0,0,2.5-8.4,2.9-9.7c1-3.4,2.5-8.8,2.5-8.8h0.2c0,0,1.4,5.6,2.3,8.7c0.4,1.2,2.8,9.7,2.8,9.7H182.9z M356.9,107.8c-2.8,0-5,2.3-5,5
	c0,2.8,2.2,5,5,5s5-2.2,5-5C361.9,110.1,359.6,107.8,356.9,107.8z"/>
</svg>
